<?xml version="1.0" encoding="UTF-8"?>
<svg xmlns="http://www.w3.org/2000/svg" xmlns:xlink="http://www.w3.org/1999/xlink" viewBox="0 0 373.37 343.48">
  <defs>
    <style>
      .cls-1, .cls-2, .cls-3, .cls-4, .cls-5, .cls-6, .cls-7, .cls-8, .cls-9, .cls-10, .cls-11, .cls-12, .cls-13, .cls-14, .cls-15, .cls-16, .cls-17, .cls-18, .cls-19, .cls-20 {
        mix-blend-mode: multiply;
      }

      .cls-1, .cls-21 {
        opacity: .4;
      }

      .cls-22 {
        fill: url(#radial-gradient-34);
      }

      .cls-2 {
        fill: url(#radial-gradient-36);
      }

      .cls-23 {
        fill: url(#radial-gradient-47);
      }

      .cls-23, .cls-21, .cls-24, .cls-25, .cls-26, .cls-27, .cls-28, .cls-29, .cls-30, .cls-31, .cls-32, .cls-33, .cls-34, .cls-35, .cls-36, .cls-37 {
        mix-blend-mode: screen;
      }

      .cls-23, .cls-24, .cls-25, .cls-26, .cls-27, .cls-28, .cls-29, .cls-31, .cls-33, .cls-36 {
        opacity: .9;
      }

      .cls-3 {
        fill: url(#radial-gradient-17);
      }

      .cls-3, .cls-10 {
        opacity: .5;
      }

      .cls-21 {
        fill: url(#radial-gradient-20);
      }

      .cls-4 {
        fill: url(#linear-gradient-2);
      }

      .cls-4, .cls-32 {
        opacity: .3;
      }

      .cls-38 {
        fill: url(#radial-gradient-16);
      }

      .cls-39 {
        fill: url(#radial-gradient-21);
      }

      .cls-40 {
        fill: url(#radial-gradient-8);
      }

      .cls-41 {
        mask: url(#mask-2);
      }

      .cls-42 {
        fill: url(#radial-gradient-4);
      }

      .cls-43 {
        isolation: isolate;
      }

      .cls-44 {
        fill: url(#radial-gradient-41);
      }

      .cls-44, .cls-45, .cls-46, .cls-47, .cls-48 {
        mix-blend-mode: color-dodge;
      }

      .cls-24 {
        fill: url(#radial-gradient-2);
      }

      .cls-45 {
        fill: url(#radial-gradient-46);
      }

      .cls-49 {
        mask: url(#mask-3);
      }

      .cls-25 {
        fill: url(#radial-gradient-42);
      }

      .cls-26 {
        fill: url(#radial-gradient-50);
      }

      .cls-50 {
        fill: url(#radial-gradient-26);
      }

      .cls-5 {
        fill: url(#radial-gradient-5);
      }

      .cls-27 {
        fill: url(#radial-gradient-52);
      }

      .cls-51 {
        fill: url(#radial-gradient-6);
      }

      .cls-46 {
        fill: url(#radial-gradient-39);
      }

      .cls-52 {
        fill: url(#radial-gradient-19);
      }

      .cls-53 {
        fill: url(#radial-gradient-12);
      }

      .cls-6 {
        fill: url(#radial-gradient-35);
      }

      .cls-54 {
        fill: url(#radial-gradient);
      }

      .cls-55 {
        fill: url(#radial-gradient-13);
      }

      .cls-28 {
        fill: url(#radial-gradient-51);
      }

      .cls-7 {
        fill: url(#radial-gradient-45);
      }

      .cls-29 {
        fill: url(#radial-gradient-49);
      }

      .cls-8 {
        fill: #b95100;
      }

      .cls-47 {
        fill: url(#radial-gradient-37);
      }

      .cls-30 {
        fill: url(#radial-gradient-10);
      }

      .cls-9 {
        fill: url(#radial-gradient-28);
      }

      .cls-56 {
        fill: url(#radial-gradient-43);
      }

      .cls-57 {
        mask: url(#mask-4);
      }

      .cls-58 {
        fill: url(#radial-gradient-15);
      }

      .cls-31 {
        fill: url(#radial-gradient-38);
      }

      .cls-11 {
        fill: url(#radial-gradient-22);
        opacity: .2;
      }

      .cls-12 {
        fill: url(#radial-gradient-30);
      }

      .cls-33 {
        fill: url(#radial-gradient-40);
      }

      .cls-34 {
        fill: url(#radial-gradient-9);
      }

      .cls-13 {
        fill: url(#radial-gradient-31);
      }

      .cls-14 {
        fill: url(#radial-gradient-44);
      }

      .cls-15 {
        fill: url(#radial-gradient-27);
      }

      .cls-59 {
        mask: url(#mask-1);
      }

      .cls-60 {
        mask: url(#mask);
      }

      .cls-61 {
        fill: url(#radial-gradient-14);
      }

      .cls-48 {
        fill: url(#radial-gradient-32);
      }

      .cls-62 {
        fill: url(#linear-gradient);
      }

      .cls-63 {
        fill: url(#radial-gradient-29);
      }

      .cls-64 {
        fill: url(#radial-gradient-23);
      }

      .cls-35 {
        fill: url(#radial-gradient-11);
      }

      .cls-16 {
        fill: url(#radial-gradient-3);
      }

      .cls-17 {
        fill: url(#radial-gradient-7);
      }

      .cls-18 {
        fill: url(#radial-gradient-25);
      }

      .cls-65 {
        fill: url(#radial-gradient-18);
      }

      .cls-36 {
        fill: url(#radial-gradient-48);
      }

      .cls-37 {
        fill: url(#radial-gradient-33);
      }

      .cls-20 {
        fill: url(#radial-gradient-24);
      }
    </style>
    <radialGradient id="radial-gradient" cx="204.36" cy="-31.02" fx="204.36" fy="-31.02" r="171.58" gradientUnits="userSpaceOnUse">
      <stop offset=".09" stop-color="#ffaf30"/>
      <stop offset=".37" stop-color="#ff8e14"/>
      <stop offset=".7" stop-color="#f77600"/>
      <stop offset=".94" stop-color="#d86000"/>
    </radialGradient>
    <radialGradient id="radial-gradient-2" cx="174.7" cy="73.35" fx="174.7" fy="73.35" r="31.85" gradientUnits="userSpaceOnUse">
      <stop offset=".06" stop-color="#fff"/>
      <stop offset=".23" stop-color="#f1cec9"/>
      <stop offset=".4" stop-color="#e5a197"/>
      <stop offset=".46" stop-color="#d7978d"/>
      <stop offset=".57" stop-color="#b27d75"/>
      <stop offset=".72" stop-color="#77534e"/>
      <stop offset=".9" stop-color="#261b19"/>
      <stop offset=".98" stop-color="#000"/>
    </radialGradient>
    <radialGradient id="radial-gradient-3" cx="180.81" cy="92.55" fx="180.81" fy="92.55" r="79.47" gradientUnits="userSpaceOnUse">
      <stop offset=".09" stop-color="#fff"/>
      <stop offset=".7" stop-color="#f77600"/>
      <stop offset=".94" stop-color="#d86000"/>
    </radialGradient>
    <radialGradient id="radial-gradient-4" cx="320.89" cy="26.79" fx="320.89" fy="26.79" r="183.66" xlink:href="#radial-gradient"/>
    <radialGradient id="radial-gradient-5" cx="222.1" cy="57.07" fx="222.1" fy="57.07" r="89.46" xlink:href="#radial-gradient-3"/>
    <radialGradient id="radial-gradient-6" cx="83.25" cy="-27.35" fx="83.25" fy="-27.35" r="204.35" xlink:href="#radial-gradient"/>
    <radialGradient id="radial-gradient-7" cx="86" cy="45.75" fx="86" fy="45.75" r="204.35" xlink:href="#radial-gradient-3"/>
    <radialGradient id="radial-gradient-8" cx="220.09" cy="131.45" fx="220.09" fy="131.45" r="57.48" gradientTransform="translate(-37.06 -27.76) rotate(-4.66)" gradientUnits="userSpaceOnUse">
      <stop offset=".01" stop-color="#719f07"/>
      <stop offset=".52" stop-color="#38770e"/>
      <stop offset=".65" stop-color="#37720d"/>
      <stop offset=".79" stop-color="#36640a"/>
      <stop offset=".94" stop-color="#344e06"/>
      <stop offset="1" stop-color="#334405"/>
    </radialGradient>
    <radialGradient id="radial-gradient-9" cx="256.18" cy="149.17" fx="256.18" fy="149.17" r="24.64" gradientTransform="translate(-37.06 -27.76) rotate(-4.66)" gradientUnits="userSpaceOnUse">
      <stop offset=".08" stop-color="#719f07"/>
      <stop offset=".38" stop-color="#38770e"/>
      <stop offset=".54" stop-color="#355e09"/>
      <stop offset=".68" stop-color="#334405"/>
      <stop offset=".98" stop-color="#000"/>
    </radialGradient>
    <radialGradient id="radial-gradient-10" cx="174.74" cy="134.18" fx="174.74" fy="134.18" r="36.23" xlink:href="#radial-gradient-9"/>
    <radialGradient id="radial-gradient-11" cx="182.25" cy="162.29" fx="182.25" fy="162.29" r="10.37" xlink:href="#radial-gradient-9"/>
    <radialGradient id="radial-gradient-12" cx="220.09" cy="131.43" fx="220.09" fy="131.43" r="57.51" gradientTransform="translate(-37.06 -27.76) rotate(-4.66)" gradientUnits="userSpaceOnUse">
      <stop offset=".08" stop-color="#fff"/>
      <stop offset=".4" stop-color="#38770e"/>
      <stop offset=".67" stop-color="#334405"/>
      <stop offset=".89" stop-color="#719f07"/>
      <stop offset="1" stop-color="#fff"/>
    </radialGradient>
    <radialGradient id="radial-gradient-13" cx="220.1" cy="131.44" fx="220.1" fy="131.44" r="57.51" xlink:href="#radial-gradient-12"/>
    <radialGradient id="radial-gradient-14" cx="220.09" cy="131.44" fx="220.09" fy="131.44" r="57.5" xlink:href="#radial-gradient-12"/>
    <radialGradient id="radial-gradient-15" cx="220.08" cy="131.42" fx="220.08" fy="131.42" r="57.52" xlink:href="#radial-gradient-12"/>
    <radialGradient id="radial-gradient-16" cx="220.1" cy="131.43" fx="220.1" fy="131.43" r="57.51" xlink:href="#radial-gradient-12"/>
    <radialGradient id="radial-gradient-17" cx="203.87" cy="201.01" fx="203.87" fy="201.01" r="51.62" xlink:href="#radial-gradient-12"/>
    <radialGradient id="radial-gradient-18" cx="220.84" cy="44.78" fx="220.84" fy="44.78" r="130.64" xlink:href="#radial-gradient-8"/>
    <linearGradient id="linear-gradient" x1="248.17" y1="65.7" x2="217.98" y2="98.74" gradientTransform="translate(-37.06 -27.76) rotate(-4.66)" gradientUnits="userSpaceOnUse">
      <stop offset=".01" stop-color="#fff"/>
      <stop offset=".3" stop-color="#719f07"/>
      <stop offset=".64" stop-color="#38770e"/>
      <stop offset=".74" stop-color="#37720d"/>
      <stop offset=".84" stop-color="#36640a"/>
      <stop offset=".96" stop-color="#344e06"/>
      <stop offset="1" stop-color="#334405"/>
    </linearGradient>
    <linearGradient id="linear-gradient-2" x1="273.75" y1="96.26" x2="250.13" y2="97.93" xlink:href="#linear-gradient"/>
    <radialGradient id="radial-gradient-19" cx="152.39" cy="80.87" fx="152.39" fy="80.87" r="96.33" gradientTransform="translate(-37.06 -27.76) rotate(-4.66)" gradientUnits="userSpaceOnUse">
      <stop offset=".32" stop-color="#719f07"/>
      <stop offset=".58" stop-color="#38770e"/>
      <stop offset=".69" stop-color="#37720d"/>
      <stop offset=".82" stop-color="#36640a"/>
      <stop offset=".95" stop-color="#344e06"/>
      <stop offset="1" stop-color="#334405"/>
    </radialGradient>
    <radialGradient id="radial-gradient-20" cx="204.2" cy="29.92" fx="204.2" fy="29.92" r="117.02" xlink:href="#radial-gradient-19"/>
    <radialGradient id="radial-gradient-21" cx="152.4" cy="80.87" fx="152.4" fy="80.87" r="96.3" xlink:href="#radial-gradient-9"/>
    <radialGradient id="radial-gradient-22" cx="219.83" cy="150.6" fx="219.83" fy="150.6" r="6.37" gradientTransform="translate(-37.06 -27.76) rotate(-4.66)" gradientUnits="userSpaceOnUse">
      <stop offset=".04" stop-color="#fff"/>
      <stop offset=".19" stop-color="#38770e"/>
      <stop offset=".39" stop-color="#334405"/>
      <stop offset=".63" stop-color="#719f07"/>
      <stop offset="1" stop-color="#fff"/>
    </radialGradient>
    <radialGradient id="radial-gradient-23" cx="325.48" cy="72.67" fx="325.48" fy="72.67" r="225.62" xlink:href="#radial-gradient"/>
    <radialGradient id="radial-gradient-24" cx="273.18" cy="169.93" fx="273.18" fy="169.93" r="224.48" xlink:href="#radial-gradient-3"/>
    <radialGradient id="radial-gradient-25" cx="273.18" cy="169.93" fx="273.18" fy="169.93" r="224.48" xlink:href="#radial-gradient-3"/>
    <radialGradient id="radial-gradient-26" cx="2.51" cy="109.98" fx="2.51" fy="109.98" r="194.4" xlink:href="#radial-gradient"/>
    <radialGradient id="radial-gradient-27" cx="25.75" cy="194.39" fx="25.75" fy="194.39" r="222.52" xlink:href="#radial-gradient-3"/>
    <radialGradient id="radial-gradient-28" cx="25.75" cy="194.39" fx="25.75" fy="194.39" r="222.52" xlink:href="#radial-gradient-3"/>
    <radialGradient id="radial-gradient-29" cx="198.86" cy="142.4" fx="198.86" fy="142.4" r="196.17" xlink:href="#radial-gradient"/>
    <radialGradient id="radial-gradient-30" cx="321.35" cy="215.8" fx="321.35" fy="215.8" r="244.96" xlink:href="#radial-gradient-3"/>
    <radialGradient id="radial-gradient-31" cx="305.29" cy="230.94" fx="305.29" fy="230.94" r="244.96" xlink:href="#radial-gradient-3"/>
    <radialGradient id="radial-gradient-32" cx="29.33" cy="134.24" fx="29.33" fy="134.24" r="65.77" gradientTransform="translate(60.09 49.76) rotate(7.11)" gradientUnits="userSpaceOnUse">
      <stop offset=".6" stop-color="#fff"/>
      <stop offset=".64" stop-color="#e8e8e8"/>
      <stop offset=".74" stop-color="#aeaeae"/>
      <stop offset=".88" stop-color="#535353"/>
      <stop offset="1" stop-color="#000"/>
    </radialGradient>
    <mask id="mask" x="6.26" y="121.74" width="98.37" height="111.13" maskUnits="userSpaceOnUse">
      <path class="cls-48" d="M89.82,194.01c-12.3,25.17-61.06,44.07-74.35,37.57-13.3-6.5-11.49-50.69,.81-75.86,12.29-25.17,31.63-35.43,46.34-33.82,63.4,6.97,39.49,46.94,27.2,72.11Z"/>
    </mask>
    <radialGradient id="radial-gradient-33" cx="14.44" cy="145.15" fx="14.44" fy="145.15" r="67.83" xlink:href="#radial-gradient-2"/>
    <radialGradient id="radial-gradient-34" cx="36.15" cy="111.82" fx="36.15" fy="111.82" r="206.27" xlink:href="#radial-gradient"/>
    <radialGradient id="radial-gradient-35" cx="77.13" cy="204.79" fx="77.13" fy="204.79" r="181.83" xlink:href="#radial-gradient-3"/>
    <radialGradient id="radial-gradient-36" cx="77.13" cy="204.79" fx="77.13" fy="204.79" r="181.83" xlink:href="#radial-gradient-3"/>
    <radialGradient id="radial-gradient-37" cx="86.26" cy="139.46" fx="86.26" fy="139.46" r="79.49" xlink:href="#radial-gradient-32"/>
    <mask id="mask-1" x="48.26" y="120.43" width="118.88" height="134.31" maskUnits="userSpaceOnUse">
      <path class="cls-47" d="M149.26,207.78c-14.86,30.42-73.79,53.26-89.85,45.4-16.07-7.85-13.89-61.26,.98-91.68,14.85-30.42,38.22-42.82,56-40.87,76.63,8.42,47.72,56.73,32.87,87.15Z"/>
    </mask>
    <radialGradient id="radial-gradient-38" cx="28.76" cy="115.08" fx="28.76" fy="115.08" r="67.48" gradientTransform="translate(60.09 49.76) rotate(7.11)" xlink:href="#radial-gradient-2"/>
    <radialGradient id="radial-gradient-39" cx="-1127.05" cy="331.4" fx="-1127.05" fy="331.4" r="79.48" gradientTransform="translate(-916.48 95.09) rotate(168.55) scale(1 -1)" xlink:href="#radial-gradient-32"/>
    <mask id="mask-2" x="212.09" y="116.62" width="123.64" height="130.75" maskUnits="userSpaceOnUse">
      <path class="cls-46" d="M233.88,206.59c17.13,29.2,77.62,47.51,93.04,38.45,15.43-9.05,9.2-62.14-7.93-91.34-17.12-29.21-41.36-39.79-58.94-36.5-75.77,14.22-43.28,60.19-26.16,89.39Z"/>
    </mask>
    <radialGradient id="radial-gradient-40" cx="324.86" cy="154.02" fx="324.86" fy="154.02" r="62.38" xlink:href="#radial-gradient-2"/>
    <radialGradient id="radial-gradient-41" cx="-1202.25" cy="452.77" fx="-1202.25" fy="452.77" r="66.75" gradientTransform="translate(-983.01 227.25) rotate(157.15) scale(1 -1)" xlink:href="#radial-gradient-32"/>
    <mask id="mask-3" x="258.79" y="109.52" width="114.06" height="101.29" maskUnits="userSpaceOnUse">
      <path class="cls-44" d="M285.89,189.63c18.94,21.19,71.77,26.23,82.96,16.22,11.2-10.01-2.73-52.67-21.68-73.87-18.93-21.2-40.65-25.89-54.57-20.27-60.01,24.27-25.64,56.73-6.71,77.92Z"/>
    </mask>
    <radialGradient id="radial-gradient-42" cx="412.18" cy="264.22" fx="412.18" fy="264.22" r="52.38" gradientTransform="translate(-104.17 -46.35) rotate(-11.39)" xlink:href="#radial-gradient-2"/>
    <radialGradient id="radial-gradient-43" cx="182.44" cy="139.71" fx="182.44" fy="139.71" r="199.86" gradientTransform="translate(-5.28 10.19) scale(.98)" xlink:href="#radial-gradient"/>
    <radialGradient id="radial-gradient-44" cx="181.12" cy="182.46" fx="181.12" fy="182.46" r="340.86" xlink:href="#radial-gradient-3"/>
    <radialGradient id="radial-gradient-45" cx="190.29" cy="155.86" fx="190.29" fy="155.86" r="340.85" xlink:href="#radial-gradient-3"/>
    <radialGradient id="radial-gradient-46" cx="157.46" cy="140.54" fx="157.46" fy="140.54" r="85.52" xlink:href="#radial-gradient-32"/>
    <mask id="mask-4" x="112.69" y="124.36" width="127.91" height="144.51" maskUnits="userSpaceOnUse">
      <path class="cls-45" d="M221.35,218.34c-16,32.73-79.4,57.31-96.68,48.85-17.29-8.45-14.94-65.91,1.05-98.65,15.98-32.73,41.13-46.07,60.26-43.97,82.45,9.06,51.34,61.04,35.37,93.77Z"/>
    </mask>
    <radialGradient id="radial-gradient-47" cx="152.06" cy="170.84" fx="152.06" fy="170.84" r="74.57" xlink:href="#radial-gradient-2"/>
    <radialGradient id="radial-gradient-48" cx="134.63" cy="156.62" fx="134.63" fy="156.62" r="62.56" xlink:href="#radial-gradient-2"/>
    <radialGradient id="radial-gradient-49" cx="82.24" cy="155.84" fx="82.24" fy="155.84" r="60.01" xlink:href="#radial-gradient-2"/>
    <radialGradient id="radial-gradient-50" cx="27.74" cy="153.41" fx="27.74" fy="153.41" r="62.56" xlink:href="#radial-gradient-2"/>
    <radialGradient id="radial-gradient-51" cx="106.37" cy="80.9" fx="106.37" fy="80.9" r="44.19" xlink:href="#radial-gradient-2"/>
    <radialGradient id="radial-gradient-52" cx="252.04" cy="86.78" fx="252.04" fy="86.78" r="33.01" xlink:href="#radial-gradient-2"/>
  </defs>
  <g class="cls-43">
    <g id="Layer_1" data-name="Layer 1">
      <g>
        <path class="cls-54" d="M184.92,80.28c26.8-1.43,56.65,16.2,71.6,38.07,31.23,45.71,37.28,127.75-9.95,164.5-37.01,28.79-89.37,32.64-118.95-9.57-31.12-44.43-38.19-93.79-18.67-141.27,10.51-25.56,49.19-50.29,75.97-51.72Z"/>
        <path class="cls-24" d="M150.69,93.54s25-19.27,59.18-8.49c0,0-30.05-7.8-59.18,8.49Z"/>
        <path class="cls-16" d="M256.51,118.35c-6.25-9.14-15.11-17.54-25.25-24.12-2.22,1.31-4.66,2.31-6.91,3.13-6.62,2.4-13.55,4-20.5,5.09-7.94,1.25-24.59,.84-27.69-8.63-2.34,4.08-6.53,8.84-11.21,8.43-4.57-.4-8.18-4.25-12.65-5.37-2.92-.74-5.87-1.16-8.84-1.5-15.45,9.74-28.95,23.06-34.52,36.62-19.52,47.48-12.45,96.84,18.67,141.27,29.57,42.22,81.94,38.36,118.95,9.57,47.23-36.75,41.18-118.79,9.95-164.5Z"/>
        <path class="cls-42" d="M247.31,91.9c26.81-1.43,68.12,14.56,83.07,36.43,31.23,45.71,25.81,129.39-21.42,166.14-37.01,28.79-89.38,32.64-118.95-9.57-31.12-44.43-25.11-102.33-5.59-149.81,10.51-25.56,36.11-41.75,62.9-43.18Z"/>
        <path class="cls-5" d="M332.6,131.8c-5.02-.77-8.66-5.28-12.08-8.64-4.99-4.9-11.37-8.56-17.91-11.02-8.13-3.06-16.39-4.3-25.08-3.8-7.52,.43-14.97,1.76-22.49,2.12-8.54,.4-31.58-1.46-30.13-13.78-17.81,6.74-33,20.17-40.5,38.4-19.52,47.48-25.53,105.38,5.59,149.81,29.57,42.22,81.94,38.36,118.95,9.57,46.06-35.84,52.34-116.31,23.65-162.67Z"/>
        <path class="cls-51" d="M117.63,91.29c26.81-1.43,56.65,16.2,71.6,38.07,31.23,45.71,37.28,127.75-9.96,164.5-37,28.79-89.37,32.64-118.95-9.57-31.12-44.43-37.58-96.24-18.06-143.72,10.51-25.56,48.58-47.85,75.36-49.28Z"/>
        <path class="cls-17" d="M189.23,129.36c-6.72-9.84-16.47-18.81-27.59-25.58-4.72,3.44-11.92,3.25-17.7,1.65,1.72,2.27,2.83,4.78,3.4,7.78,.12,.63-.57,1.27-1.19,1.19-8.22-1.02-15.88,3.02-24,2.43-4.43-.32-8.74-1.89-13.13-2.58-4.07-.64-8.18-1.12-12.3-1.22-15.01-.37-29.46,3.04-42.54,9.82-5.21,5.55-9.38,11.53-11.92,17.71-19.52,47.48-13.06,99.29,18.06,143.72,29.57,42.22,81.94,38.36,118.95,9.57,47.23-36.75,41.18-118.79,9.96-164.5Z"/>
        <g>
          <path class="cls-40" d="M239.02,110.42c-.66-1.68-3.95-1.27-10.5-3.53-6.2-2.8-7.58-6.67-8.9-6.56-1.32,.1-3.88,2.83-11.07,4.08-7.19,1.25-22.57-.15-26.38-2.88-3.81-2.75-3.86-3.41-6.72-4.36-2.87-.97-.6,4.2-6.73,8.3-6.14,4.1-16.95,3.9-16.95,3.9-2.8-.86,5.92,5.82,4.79,9.89-1.12,4.05-.54,8.61-2.5,10.23-1.97,1.63,0,0,4.7,1.29,11.32-5.48,22.22-8.21,32.51-9.02,.37-.03,.72-.07,1.09-.1,2.51-.19,5.03-.45,7.55-.4,1.32,.03,2.58,.17,3.84,.38,0,0,.01-.01,.02-.01,2.69,.04,5.42,.32,8.03,.98,5.57,.91,10.87,2.3,15.86,4.01,0-5.02,12.02-14.54,11.36-16.2Z"/>
          <path class="cls-34" d="M208.38,108.46s4.72-2.1,8.75-4.97c4.02-2.88,2.17,.67,2.2,3.64,.04,2.98,3.02,5.71,7.26,5.57,4.24-.13,1.79,3.69-5.71,3.02-7.48-.67-14.54-6.45-12.5-7.26Z"/>
          <path class="cls-30" d="M159.25,110.09s4.27,1.05,12.15-1.54c7.87-2.6,.63,4.4-4.35,4.81-4.98,.4-12-3.48-7.79-3.27Z"/>
          <path class="cls-35" d="M165.81,122.11s-4.43,2.57-7,4.21c-2.58,1.65-.37,1.31,5.72-.31,6.09-1.61,2.66-4.65,1.28-3.9Z"/>
          <g class="cls-10">
            <path class="cls-53" d="M212.96,103.31c-1.23,.41-2.68,.79-4.41,1.09-6.5,1.13-19.68,.09-24.97-2.14,5.01,5.68,14.52,11.44,29.38,1.05Z"/>
            <path class="cls-55" d="M174.98,97.03c-2.15-.21-.5,4.57-6.25,8.42-4.14,2.76-10.39,3.57-14.03,3.8,1.8,.03,3.93,.08,6.44,.13,14.39,.44,14.74-7.78,13.84-12.35Z"/>
            <path class="cls-61" d="M237.32,109.21c-1.68-.53-4.54-.86-8.79-2.33-3.69-1.67-5.66-3.71-6.94-5.07-.25,5.17,1.45,13.09,15.74,7.4Z"/>
            <path class="cls-58" d="M235.12,115.61c-7.46,1.48-15.42,4.34-7.1,9.35,1.07-2.82,4.37-6.39,7.1-9.35Z"/>
            <path class="cls-38" d="M162.77,115.66c-1.25-2.56-6.09-3.89-10.35-4.58,1.79,2.12,4.86,5.63,4.15,8.16-.86,3.08-.73,6.46-1.49,8.62,7.85-6.58,9.78-7.89,7.69-12.2Z"/>
          </g>
          <path class="cls-3" d="M220.79,117.46c-6.5-1.89-17.58-7.65-17.58-7.65l-27.02,2.81s-6.62,4.18-10.48,5.09c-3.87,.92,1.88,4.39,7.51,6.65,4.1-.86,8.75-1.56,13.58-2.02,1.84-.33,3.65-.53,5.57-.68,2.51-.19,5.03-.45,7.55-.4,1.32,.03,2.58,.17,3.84,.38,0,0,.01-.01,.02-.01,2.3,.04,4.65,.24,6.91,.73,3.32,.4,6.41,1,9.14,1.85,4.52-4.01,7.47-4.85,.96-6.75Z"/>
          <g>
            <path class="cls-65" d="M212.29,114.14c-8.44-4.32-9.1-12.37-9.95-19.54-.87-7.18-1.54-22.19-13.9-50.74C173.42,6.86,157.63,1.91,151.06,.18c-6.57-1.75-17.48,9.5-16.15,28.26,1.31,18.77,8.63,16.93,11.55,14.62,2.92-2.31,9.6-1.82,17.49,3.34,19.5,15.42,23.78,42.64,22.68,52.07-1.1,9.42-17.64,17.61-19.59,19.01-1.96,1.4,8.05,7.22,8.05,7.22,7.38-2.32,14.17-3.12,19.76-3.23,1.68-.13,3.38-.25,5.06-.21,1.32,.03,2.58,.17,3.84,.38,0,0,.01-.01,.02-.01,2.66,.04,5.34,.32,7.93,.96,3.15-.71,9.39-2.26,9.1-3.28-.4-1.36-2.08-1.51-8.51-5.17Z"/>
            <g class="cls-1">
              <path class="cls-62" d="M212.29,114.14c-1.71-.87-3.07-1.9-4.21-3.04,.4,.69,.89,1.26,1.51,1.71,6.19,4.49,6.91,6.37-2.48,3.81-9.38-2.58-1.25,5.11-6.71,3.05-5.45-2.06-8.38-4.05-15.39-1.25-7,2.8-13.21,1.63-1-5.48,12.88-9.11,10.2-31.7-4.03-59.74-14.25-28.02-25.05-20.76-24.65-36.35,.21-8.32-1.45-13.41-3.05-16.35-.44-.12-.85-.23-1.23-.33-6.57-1.75-17.48,9.5-16.15,28.26,1.31,18.77,8.63,16.93,11.55,14.62,2.92-2.31,9.6-1.82,17.49,3.34,19.5,15.42,23.78,42.64,22.68,52.07-1.1,9.42-17.64,17.61-19.59,19.01-1.96,1.4,8.05,7.22,8.05,7.22,7.38-2.32,14.17-3.12,19.76-3.23,1.68-.13,3.38-.25,5.06-.21,1.32,.03,2.58,.17,3.84,.38,0,0,.01-.01,.02-.01,2.66,.04,5.34,.32,7.93,.96,3.15-.71,9.39-2.26,9.1-3.28-.4-1.36-2.08-1.51-8.51-5.17Z"/>
            </g>
            <path class="cls-4" d="M184.76,71.65c-2.34-12.76-18.05-30.66-22.66-33.15-4.6-2.46-10.91-.39-9.42-7.52,2.56-16.59-1.05-26.44-3.56-30.97-6.56,.57-15.41,11.41-14.21,28.42,1.31,18.77,8.63,16.93,11.55,14.62,2.92-2.31,9.6-1.82,17.49,3.34,19.5,15.42,23.78,42.64,22.68,52.07-1.1,9.42-17.64,17.61-19.59,19.01-.22,.16-.29,.37-.23,.63,6.23-1.65,9.75-3.53,17.32-9.6,9-7.2,2.96-24.08,.63-36.85Z"/>
            <path class="cls-52" d="M148.79,.5c-.5-.12-1.03-.12-1.59-.04-6.22,2.25-13.37,12.58-12.29,27.98,1.13,16.09,6.67,17.04,10.07,15.52,10.42-7.64,8.34-42.34,3.81-43.45Z"/>
            <path class="cls-21" d="M156.6,3.78s.19,5.06,3.08,6.66c2.9,1.61,22.22,15.69,36.26,60.81,5.9,27.15,3.55,6.85,1.9,.77-1.64-6.08-13.04-35.77-19.76-47.65-6.72-11.89-21.68-23.1-21.48-20.59Z"/>
            <g class="cls-32">
              <path class="cls-39" d="M148.79,.5c-.5-.12-1.03-.12-1.59-.04-6.22,2.25-13.37,12.58-12.29,27.98,.78,11.11,3.66,15,6.49,15.84-1.62-2.61-3.04-7.05-2.68-14.5,.78-15.86,4.33-18.41,5.19-10.2,.85,8.19,5.47-1.95,.88-7.59-4.6-5.65,.5-7.66,2.73-8.03,2.22-.36,6.51,10.66,4.32,23.06-.19,1-.27,1.94-.31,2.83,2.21-12.67,.28-28.59-2.76-29.34Z"/>
            </g>
          </g>
          <path class="cls-11" d="M196.86,95.87s-1.02,11.52-4.83,16.01c-2.27,2.97,6.26,1.44,4.83-16.01Z"/>
        </g>
        <path class="cls-64" d="M274.23,109.06c14.92-.91,29.97,1.8,42.99,8.97,11.2,6.17,25.43,15.54,32.78,24.88,17.49,22.24,24.37,49.82,23.24,75.98-1.32,30.55-13.8,64.43-45.29,83.36-.64,.39-1.3,.75-1.95,1.12-38.19,19.88-87.44,11.39-112.18-19.16-20.89-25.79-27.01-61.66-20.9-92.02,8.06-40.02,28.33-79.92,81.31-83.14Z"/>
        <path class="cls-20" d="M365.05,169.14c.17,.56,.34,1.12,.51,1.69,4.36,15.45,7.31,32.28,6.82,48.4-.3,9.95-1.53,29.41-13.96,32.32-19.26,4.51-20.12-20.43-21.75-32.94-3.47-26.66-14.16-53.09-32.21-73.23-8.35-9.33-18.39-18.96-30.19-23.66-9.06-3.61-18.73-4.8-28.27-6.51-32.41,13.2-46.64,45.05-53.07,76.98-6.11,30.36,0,66.23,20.9,92.02,24.74,30.55,74,39.04,112.18,19.16,.65-.37,1.31-.74,1.95-1.12,31.49-18.93,43.97-52.81,45.29-83.36,.72-16.59-1.8-33.75-8.19-49.76Z"/>
        <path class="cls-18" d="M358.13,269.25c-5.52,5.1-11.25,10.38-17.36,14.76-4.35,3.12-9.23,6.35-14.78,6.25-.24,0-.41-.26-.4-.48,.22-5.26,2.22-9.93,4.11-14.78,2.16-5.55,3.49-11.27,4.09-17.2,1.18-11.59,.51-23.33-.64-34.9-1.12-11.35-3.28-22.54-5.12-33.79-.45-2.76-.93-5.56-1.51-8.35-5.41-12.91-12.75-24.98-22.06-35.37-8.35-9.33-18.39-18.96-30.19-23.66-9.06-3.61-18.73-4.8-28.27-6.51-32.41,13.2-46.64,45.05-53.07,76.98-6.11,30.36,0,66.23,20.9,92.02,24.74,30.55,74,39.04,112.18,19.16,.65-.37,1.31-.74,1.95-1.12,15.33-9.21,26.14-21.98,33.37-36.17-1.05,1.07-2.09,2.14-3.19,3.16Z"/>
        <path class="cls-8" d="M317.21,301.84c-.53,.13-1.06-.25-.68-.81,12.85-19.22,17.07-43.87,15.23-66.69-1.52-18.9-8.68-36.71-19.88-51.96-19.57-26.65-47.52-45.53-75.75-62.23-25.51,15.18-37.46,43.57-43.2,72.06-6.11,30.36,0,66.23,20.9,92.02,24.74,30.55,74,39.04,112.18,19.16,.65-.37,1.31-.74,1.95-1.12,11.14-6.69,19.88-15.26,26.6-24.89-10.15,11.62-23.01,20.81-37.35,24.46Z"/>
        <path class="cls-50" d="M91.36,112.69c-25.5-1.32-53.88,14.93-68.1,35.09-29.7,42.14-35.45,117.77,9.47,151.64,35.2,26.54,85,30.09,113.13-8.83,29.6-40.96,23.88-94.33,5.32-138.1-9.99-23.56-34.35-38.49-59.82-39.81Z"/>
        <path class="cls-15" d="M151.18,152.49c-6.05-14.26-17.37-25.32-31-32.16-9.83,1.12-19.2,5.22-27.28,11.07-17.34,12.56-25.86,17.72-35.95,52.59-7.3,25.21-3.06,40.37-9.45,55.21-3.14,7.27-10.26,13.45-18.86,11.24-9.61-2.46-16.52-11-20.87-19.52-3.33-6.52-5.64-13.55-6.99-20.76-3.6,33.96,5.15,69.04,31.95,89.26,35.2,26.54,85,30.09,113.13-8.83,29.6-40.96,23.88-94.33,5.32-138.1Z"/>
        <path class="cls-9" d="M81.53,252.88c-1.31-14.4-1.84-28.86-.55-43.28,.62-6.94,1.49-13.86,2.66-20.73,1.12-6.6,3.45-13.29,4.07-19.93,.11-1.19,1.13-5.42-.88-4.13-1.13,.72-2.24,1.48-3.25,2.37-1.94,1.71-3.75,3.57-5.33,5.62-3.26,4.22-6,8.82-8.36,13.61-4.72,9.59-8.55,19.75-11.64,29.98-4.11,13.59-7.43,27.96-6.9,42.25,.54,14.53-6.87,35.62-18.88,30.58-7.93-3.33-13.77-10.48-18.82-17.47-4.48-6.19-7.84-12.92-10.57-19.92,4.46,18.83,13.96,35.77,29.66,47.61,18.97,14.31,42.19,21.92,63.97,19.81-8.31-21.21-13.1-43.55-15.18-66.35Z"/>
        <path class="cls-63" d="M236.91,112.69c26.81-1.43,56.65,16.2,71.6,38.07,31.23,45.71,37.28,127.75-9.96,164.5-37,28.79-89.37,32.64-118.95-9.57-31.12-44.43-25.11-102.33-5.59-149.81,10.51-25.56,36.11-41.75,62.9-43.18Z"/>
        <path class="cls-12" d="M322.74,257.46c-10.09,11.51-26.96,10.81-35.12-2.54-8.12-13.28-8.93-29.94-10.63-45.02-4.35-38.41-25.51-78.88-63.29-92.13-17.46,6.84-32.3,20.14-39.68,38.1-19.52,47.48-25.53,105.38,5.59,149.81,29.57,42.22,81.94,38.36,118.95,9.57,23.68-18.42,33.96-48.22,34.4-79.12-1.86,7.89-5.04,15.43-10.2,21.31Z"/>
        <path class="cls-13" d="M276.18,291.22c-8.9-7.63-8.35-19.58-7.29-30.24,1.34-13.42,1.48-27.49,.4-40.94-3.11-38.9-21.24-81.76-56.14-102.03-17.23,6.9-31.84,20.1-39.15,37.87-19.52,47.48-25.53,105.38,5.59,149.81,29.57,42.22,81.94,38.36,118.95,9.57,10.83-8.42,18.82-19.24,24.38-31.44-11.78,10.74-33.13,19.07-46.76,7.39Z"/>
        <path class="cls-8" d="M236.53,332.16c-.67-.15-.35-.92,.01-1.22,11.98-9.91,19.65-24.46,24.85-38.87,3.05-8.44,5.46-17.15,7.07-25.99,.11-1.71,.25-3.42,.42-5.09,1.34-13.42,1.48-27.49,.4-40.94-3.11-38.9-21.24-81.76-56.14-102.03-17.23,6.9-31.84,20.1-39.15,37.87-19.52,47.48-25.53,105.38,5.59,149.81,26.02,37.15,69.7,38.61,105.02,18.81-14.87,7.16-31.83,11.24-48.1,7.65Z"/>
        <g class="cls-60">
          <path class="cls-37" d="M31.35,143.03c-7.7,8.35-14.53,18.25-18.29,29.04-3.57,10.25-6.11,24.92,1.17,34.31,6.29,8.11,16.74,5.97,23.75-.13,8.82-7.68,12.31-19.46,16.52-29.99,4.3-10.78,10.15-20.56,15.87-30.62,2.62-4.6,5.61-10.54,.7-14.89-4.55-4.03-10.76-4.02-16.06-1.51-.85,.4-1.15-.3-.82-.83-8.86,2.58-16.48,7.72-22.83,14.61Z"/>
        </g>
        <path class="cls-8" d="M55.27,246.08c-.46,37.62,21.33,69.27,21.33,69.27-14.77-.57-34.21-10.19-40.55-13.54,18.33,12.75,40.13,19.4,60.66,17.42-8.31-21.21-13.1-43.55-15.18-66.35-1.05-11.51-1.58-23.06-1.1-34.6-13.69,4.68-24.99,13.05-25.17,27.8Z"/>
        <path class="cls-22" d="M140.64,117.59c-12.78-.72-25.86,2.46-37.42,10.28-9.73,6.59-22.11,16.61-28.5,26.58-15.2,23.76-21.19,53.23-20.21,81.18,1.15,32.64,12,68.83,39.38,89.06,.56,.41,1.13,.8,1.7,1.2,33.2,21.24,76.02,12.17,97.53-20.47,28.5-43.24,23-99.59,5.12-145.81-9.62-24.87-33.07-40.63-57.6-42.03Z"/>
        <path class="cls-6" d="M198.24,159.61c-6.54-16.9-19.46-29.57-34.76-36.41-3.04,.95-6.03,2.08-8.97,3.59-5.15,2.64-10.02,5.8-14.44,9.55-9.33,7.91-16.96,17.65-22.97,28.28-10.1,17.9-16.59,37.98-19.5,58.31-1.1,7.66-1.43,15.39-2.56,23.04-.88,5.93-2.42,13.08-7.09,17.29-4.75,4.29-11.72,4.67-17.48,2.15-6.54-2.86-10.85-8.68-13.4-15.2-.78-2-1.44-4.03-2.01-6.08,2.62,30.25,13.81,62.07,38.83,80.55,.56,.41,1.13,.8,1.7,1.2,33.2,21.24,76.02,12.17,97.53-20.47,28.5-43.24,23-99.59,5.12-145.81Z"/>
        <path class="cls-2" d="M129.13,153.41c-29.36,32.42-26.3,97.56-25.69,111.02,.61,13.46,3.67,29.06-11.01,36.7-10.37,5.4-18.59-.63-22.53-4.65,5.96,10.94,13.81,20.69,24,28.21,.56,.41,1.13,.8,1.7,1.2,33.2,21.24,76.02,12.17,97.53-20.47,25.38-38.5,23.79-87.39,10.52-130.27-6.96-7.86-47.73-51.32-74.51-21.75Z"/>
        <g class="cls-10">
          <path class="cls-8" d="M167.26,292.41c-11.32-10.24-20.86-22.48-29.26-35.19-4.24-6.41-8.19-12.99-11.87-19.73-2.62-4.8-3.74-10.32-7.78-14.2-5.7,5.59-5.53,16.16-5.42,23.51,.13,9.19,.51,18.58,2.19,27.62,2.03,10.91,5.21,21.81,10.39,31.66,4.82,9.15,10.86,17.49,17.16,25.65,.44,.57-.42,1.26-.92,1.34-21.22,3.37-40.57-3.67-56.66-16.02,2.73,2.73,5.64,5.3,8.8,7.64,.56,.41,1.13,.8,1.7,1.2,32.2,20.61,73.45,12.69,95.54-17.59-8.53-4.31-16.53-9.25-23.86-15.89Z"/>
        </g>
        <g class="cls-59">
          <path class="cls-31" d="M124.72,134.9c-2.78-5.28-9.69-5.51-14.88-4.5-9.61,1.87-17.23,7.54-24.53,13.71-20.44,17.28-42.59,68.05-15.94,89.35,4.54,3.63,14.82,2.53,19.19-.54,6.92-4.86,8.71-14.1,10.13-21.87,3.38-18.41,7.43-37.54,17.71-53.51,3.83-5.95,12.38-14.97,8.32-22.66Z"/>
        </g>
        <g class="cls-41">
          <path class="cls-33" d="M252.82,132.06c2.38-5.48,9.25-6.23,14.5-5.61,9.72,1.13,17.76,6.21,25.5,11.81,21.7,15.68,47.63,64.62,22.68,87.89-4.25,3.97-14.58,3.65-19.17,.92-7.27-4.32-9.75-13.4-11.76-21.04-4.77-18.1-10.26-36.87-21.72-52.01-4.27-5.65-13.48-13.99-10.02-21.97Z"/>
        </g>
        <g class="cls-49">
          <path class="cls-25" d="M289.12,125.14c1.05-4.9,6.58-6.66,11-7.03,8.19-.68,15.65,2.17,22.95,5.49,20.46,9.31,49.92,45.29,33.24,68.58-2.85,3.97-11.4,5.42-15.63,3.94-6.69-2.35-10.25-9.41-13.17-15.36-6.92-14.11-14.56-28.65-26.51-39.21-4.45-3.94-13.41-9.28-11.89-16.42Z"/>
        </g>
        <path class="cls-56" d="M196.77,114.08c-3.53-.1-7.19,.12-10.98,.71-41.61,6.42-68.13,44.09-75.72,83.04-2.49,12.8-3.67,26.46-3.21,39.51,1.2,34.05,12.53,71.82,41.11,92.93,.58,.43,1.18,.84,1.77,1.25,34.66,22.17,79.36,12.7,101.82-21.36,22.53-34.16,26.4-81.46,16.29-120.54-8.86-34.25-32.46-74.41-71.08-75.53Z"/>
        <path class="cls-14" d="M267.85,189.61c-8.86-34.25-32.46-74.41-71.08-75.53-3.53-.1-7.19,.12-10.98,.71-3.92,.61-7.71,1.49-11.36,2.63,1.37-.06,2.76,0,4.17,.14,2.13-.5,4.26-1.01,6.41-1.4,6.46-1.18,12.17-.82,18.46,1.07,11.05,3.33,21.58,10.66,29.75,18.72,16.71,16.49,50.05,98.21-42.31,130.63-43.55,15.28-75.69-24.71-76.73-46.13-1.27-26.09,6.28-51.2,18.94-73.82-11.64,14.67-19.46,32.79-23.04,51.2-2.49,12.8-3.67,26.46-3.21,39.51,1.2,34.05,12.53,71.82,41.11,92.93,.58,.43,1.18,.84,1.77,1.25,34.66,22.17,79.36,12.7,101.82-21.36,22.53-34.16,26.4-81.46,16.29-120.54Z"/>
        <path class="cls-7" d="M191.98,319.48c-58.98,9.65-78.88-45.28-82.09-55.67,5.09,25.78,16.8,50.73,38.08,66.45,.58,.43,1.18,.84,1.77,1.25,34.66,22.17,79.36,12.7,101.82-21.36,21.73-32.96,26.1-78.14,17.3-116.38,.05,.6,.11,1.21,.19,1.84,6.42,49.09-12.62,113.31-77.07,123.87Z"/>
        <g class="cls-19">
          <path class="cls-8" d="M221.61,330.05c-27.18,13.22-61.51,9.3-84.54-9.46,3.31,3.51,6.94,6.75,10.89,9.67,.58,.43,1.18,.84,1.77,1.25,34.66,22.17,79.36,12.7,101.82-21.36,10.31-15.64,16.67-34.04,19.61-53.13-9.34,29.09-20.78,59.04-49.55,73.03Z"/>
        </g>
        <g class="cls-57">
          <path class="cls-23" d="M204.19,209.36c-21.9,47.51-58.81,42.18-76.1,33.73-17.29-8.44-18.35-41.81-2.36-74.54,15.98-32.73,42.96-52.41,60.26-43.97,17.28,8.45,43.22,30.55,18.2,84.79Z"/>
        </g>
        <path class="cls-36" d="M171.79,121.75s-55.05,16.97-61.93,94.51c0,0,6.88-64.23,61.93-94.51Z"/>
        <path class="cls-29" d="M117.89,122.39s-52.81,16.28-59.41,90.66c0,0,6.6-61.61,59.41-90.66Z"/>
        <path class="cls-26" d="M64.9,118.54S9.85,135.52,2.97,213.05c0,0,6.88-64.23,61.93-94.51Z"/>
        <path class="cls-28" d="M73.62,110.29s37.62-26.61,80.74-8.95c0,0-40.83-23.4-80.74,8.95Z"/>
        <path class="cls-27" d="M225.24,98.36s28.9-13.99,66.06,3.44c0,0-30.28-13.3-66.06-3.44Z"/>
      </g>
    </g>
  </g>
</svg>